<svg xmlns="http://www.w3.org/2000/svg" xmlns:xlink="http://www.w3.org/1999/xlink" version="1.1" x="0px" y="0px" viewBox="0 0 100 125" enable-background="new 0 0 100 100" xml:space="preserve"><path d="M50,71.545c-17.92,0-32.5-14.579-32.5-32.5c0-17.92,14.58-32.5,32.5-32.5c17.921,0,32.5,14.58,32.5,32.5  C82.5,56.966,67.921,71.545,50,71.545z M50,11.545c-15.164,0-27.5,12.336-27.5,27.5c0,15.163,12.336,27.5,27.5,27.5  c15.163,0,27.5-12.337,27.5-27.5C77.5,23.881,65.163,11.545,50,11.545z M73.649,39.045c0-13.04-10.609-23.649-23.649-23.649  c-1.381,0-2.5,1.119-2.5,2.5s1.119,2.5,2.5,2.5c10.283,0,18.649,8.366,18.649,18.649c0,1.381,1.119,2.5,2.5,2.5  S73.649,40.426,73.649,39.045z M74.834,93.5H25c-0.773,0-1.503-0.358-1.977-0.97c-0.473-0.611-0.637-1.408-0.443-2.157l5.167-19.955  c0.286-1.103,1.281-1.873,2.42-1.873c0.56,0,1.114,0.188,1.554,0.534c5.333,4.188,11.725,6.401,18.487,6.401  s13.155-2.214,18.488-6.401c0.44-0.346,0.984-0.534,1.544-0.534c1.169,0,2.275,0.81,2.532,1.95l4.5,19.955  c0.167,0.741-0.012,1.518-0.486,2.111C76.313,93.154,75.594,93.5,74.834,93.5z M28.23,88.5h43.477l-3.003-13.32  c-5.542,3.479-11.866,5.301-18.496,5.301c-6.642,0-12.976-1.828-18.525-5.319L28.23,88.5z"/></svg>