<svg xmlns="http://www.w3.org/2000/svg" xmlns:xlink="http://www.w3.org/1999/xlink" version="1.1" x="0px" y="0px" viewBox="0 0 100 125" enable-background="new 0 0 100 100" xml:space="preserve"><g><path d="M51.932,40.112c-0.093,0-0.184-0.001-0.276-0.004c-3.512-0.071-6.785-1.507-9.219-4.043   c-2.433-2.534-3.733-5.865-3.662-9.377c0.15-7.196,6.196-13.026,13.423-12.881c3.513,0.073,6.787,1.508,9.22,4.043   c2.432,2.536,3.73,5.867,3.658,9.38C64.931,34.333,59.034,40.112,51.932,40.112z M51.922,15.202   c-6.346,0-11.618,5.166-11.749,11.517c-0.064,3.138,1.099,6.114,3.271,8.378c2.175,2.266,5.102,3.55,8.24,3.613   c0.082,0.002,0.165,0.002,0.247,0.002c6.347,0,11.616-5.163,11.747-11.511c0.065-3.14-1.097-6.117-3.271-8.383   c-2.173-2.267-5.1-3.55-8.238-3.613C52.085,15.204,52.004,15.202,51.922,15.202z"/><g><path d="M51.868,45.709l-0.699-0.016c-5.002-0.103-9.667-2.147-13.134-5.758c-3.465-3.611-5.315-8.355-5.212-13.358    c0.1-4.936,2.099-9.556,5.626-13.008c3.616-3.538,8.418-5.446,13.491-5.341l0.699,0.015l-0.091,4.403l-0.699-0.015    c-3.883-0.076-7.552,1.38-10.318,4.086c-2.698,2.641-4.229,6.175-4.306,9.951c-0.079,3.828,1.338,7.456,3.988,10.218    c2.652,2.762,6.22,4.326,10.047,4.406l0.699,0.015L51.868,45.709z M51.213,9.625c-4.432,0.084-8.605,1.833-11.786,4.943    c-3.264,3.195-5.113,7.469-5.207,12.037c-0.096,4.631,1.62,9.021,4.825,12.362c3.045,3.172,7.091,5.04,11.455,5.301l0.035-1.608    c-3.938-0.252-7.582-1.942-10.329-4.806c-2.911-3.031-4.465-7.014-4.379-11.216c0.086-4.143,1.764-8.021,4.726-10.919    c2.87-2.808,6.632-4.391,10.627-4.484L51.213,9.625z"/></g><path d="M33.614,91.775l-0.021-9.967l2.311-0.008l-0.071-34.333l26.069-0.055l0.071,34.337l2.309-0.004l0.02,9.965L33.614,91.775z    M34.994,83.203l0.016,7.172l27.892-0.061l-0.015-7.168l-2.31,0.004l-0.071-34.337l-23.272,0.049l0.072,34.335L34.994,83.203z"/></g></svg>